<svg xmlns="http://www.w3.org/2000/svg" viewBox="0 0 64 64">
  <defs>
    <linearGradient id="g" x1="0" x2="1" y1="0" y2="1">
      <stop offset="0" stop-color="#f97316" />
      <stop offset="1" stop-color="#facc15" />
    </linearGradient>
  </defs>
  <rect width="64" height="64" rx="16" fill="url(#g)" />
  <path d="M20 30c-3.5 0-6-2.7-6-6 0-3.6 3.5-6.4 7.2-5.5C23 14.4 28 12 32 12s9 2.4 10.8 6.5c3.7-.9 7.2 1.9 7.2 5.5 0 3.3-2.5 6-6 6h-2l2 10c.5 2.6-1.5 5-4.2 5H24.2c-2.7 0-4.7-2.4-4.2-5l2-10Zm14 14h-4v4h4Z" fill="#fff" />
</svg>
